<svg width="167" height="24" viewBox="0 0 167 24" fill="none" xmlns="http://www.w3.org/2000/svg">
<g clip-path="url(#clip0_776_13963)">
<path d="M25.5843 24.065H22.0919C21.0803 24.0653 20.0818 23.8362 19.1716 23.3948C18.2613 22.9535 17.463 22.3114 16.8369 21.5169L12.7899 16.3847L9.42192 12.1069L0 0.150391H6.74495L12.7959 7.83213L16.1669 12.1114L19.5348 16.3892L25.5843 24.065Z" fill="white"/>
<path d="M6.05096 16.3164H12.7899L6.73895 23.9996H0L6.05096 16.3164Z" fill="#309A5B"/>
<path d="M19.528 7.75986H12.7891L18.84 0.078125H25.579L19.528 7.75986Z" fill="#0047AF"/>
<path d="M36.2624 13.1624L34.0156 10.9141H46.0066V13.1624H36.2624Z" fill="white"/>
<path d="M34.0251 6.74441V17.2365H46.0161V19.4849H34.0251C33.23 19.4849 32.4676 19.169 31.9054 18.6068C31.3432 18.0446 31.0273 17.2822 31.0273 16.4871V7.49385C31.0273 6.69879 31.3432 5.9363 31.9054 5.37412C32.4676 4.81193 33.23 4.49609 34.0251 4.49609H46.0161V6.74441H34.0251Z" fill="white"/>
<path d="M65.8957 4.54492V19.5337H63.3477V7.09301C63.3477 6.41722 63.6161 5.7691 64.094 5.29124C64.5718 4.81338 65.22 4.54492 65.8957 4.54492Z" fill="white"/>
<path d="M74.1125 13.5391H64.9844V15.0379H74.1125V13.5391Z" fill="white"/>
<path d="M65.8984 4.54492H67.6761C68.0504 4.545 68.4188 4.63855 68.7478 4.81706C69.0768 4.99556 69.3561 5.25339 69.5602 5.56716L78.6389 19.5337H75.6411L65.8984 4.54492Z" fill="white"/>
<path d="M102.619 10.9151H112.362C112.958 10.9151 113.53 11.152 113.952 11.5737C114.374 11.9953 114.61 12.5672 114.61 13.1635V17.2854C114.61 17.8817 114.374 18.4535 113.952 18.8752C113.53 19.2968 112.958 19.5337 112.362 19.5337H100.371V4.54492H112.362C112.958 4.54492 113.53 4.7818 113.952 5.20344C114.374 5.62508 114.61 6.19695 114.61 6.79324V7.91739C114.61 9.56616 114.011 10.9151 112.362 10.9151V6.79324H102.619V17.2854H112.362V13.1635H102.619V10.9151Z" fill="white"/>
<path d="M134.396 4.54492H131.848V19.5337H134.396V4.54492Z" fill="white"/>
<path d="M116.109 4.54492H128.1C128.697 4.54492 129.269 4.7818 129.69 5.20344C130.112 5.62508 130.349 6.19695 130.349 6.79324V10.9151C130.349 11.5114 130.112 12.0833 129.69 12.5049C129.269 12.9266 128.697 13.1635 128.1 13.1635H124.353L130.349 19.5337H127.351L121.355 13.1635V10.9151H128.1V6.79324H118.358V19.5337H116.109V4.54492Z" fill="white"/>
<path d="M79.3867 19.5334H81.635V4.5446L86.3535 18.027C86.5086 18.4658 86.7961 18.8456 87.1763 19.1141C87.5564 19.3825 88.0105 19.5264 88.4759 19.5259H89.1294L84.4095 6.03599C84.2543 5.59721 83.9668 5.21738 83.5867 4.94891C83.2065 4.68044 82.7525 4.53656 82.2871 4.53711H81.635C81.0387 4.53711 80.4669 4.77399 80.0452 5.19563C79.6236 5.61727 79.3867 6.18913 79.3867 6.78542V19.5334Z" fill="white"/>
<path d="M96.6233 19.5337H98.8716V6.79324C98.8716 6.19695 98.6347 5.62508 98.2131 5.20344C97.7915 4.7818 97.2196 4.54492 96.6233 4.54492H95.9698C95.5044 4.54437 95.0503 4.68826 94.6701 4.95673C94.29 5.2252 94.0025 5.60502 93.8474 6.0438L89.1289 19.5337H89.7809C90.2463 19.5342 90.7004 19.3904 91.0806 19.1219C91.4607 18.8534 91.7482 18.4736 91.9033 18.0348L96.6233 4.55242V19.5337Z" fill="white"/>
<path d="M150.883 4.54492V6.79324H138.143V10.9151H148.635C149.231 10.9151 149.803 11.152 150.225 11.5737C150.646 11.9953 150.883 12.5672 150.883 13.1635V17.2854C150.883 17.8817 150.646 18.4535 150.225 18.8752C149.803 19.2968 149.231 19.5337 148.635 19.5337H135.895V17.2854H148.635V13.1635H138.143C137.547 13.1635 136.975 12.9266 136.553 12.5049C136.131 12.0833 135.895 11.5114 135.895 10.9151V6.79324C135.895 6.19695 136.131 5.62508 136.553 5.20344C136.975 4.7818 137.547 4.54492 138.143 4.54492H150.883Z" fill="white"/>
<path d="M155.377 4.54492H152.379V19.5337H155.377V4.54492Z" fill="white"/>
<path d="M166.623 4.54492L159.764 11.4023C159.68 11.4858 159.614 11.585 159.569 11.6942C159.523 11.8033 159.5 11.9204 159.5 12.0386C159.5 12.1567 159.523 12.2738 159.569 12.3829C159.614 12.4921 159.68 12.5913 159.764 12.6748L166.623 19.5337H162.875L157.766 14.424C157.452 14.111 157.204 13.7392 157.034 13.33C156.865 12.9208 156.777 12.4822 156.777 12.0393C156.777 11.5964 156.865 11.1578 157.034 10.7486C157.204 10.3394 157.452 9.96766 157.766 9.65459L162.875 4.54492H166.623Z" fill="white"/>
<path d="M63.3492 4.54492L55.8548 12.0393L63.3492 19.5337H59.602L54.4923 14.424C54.179 14.111 53.9304 13.7392 53.7608 13.33C53.5912 12.9208 53.5039 12.4822 53.5039 12.0393C53.5039 11.5964 53.5912 11.1578 53.7608 10.7486C53.9304 10.3394 54.179 9.96766 54.4923 9.65459L59.602 4.54492H63.3492Z" fill="white"/>
<path d="M46.0078 19.5337L53.5022 12.0393L46.0078 4.54492H49.755L54.8647 9.65459C55.4968 10.2873 55.8518 11.145 55.8518 12.0393C55.8518 12.9336 55.4968 13.7914 54.8647 14.424L49.755 19.5337H46.0078Z" fill="white"/>
<path d="M133.295 3.0607H130.609L133.021 0H135.706L133.295 3.0607Z" fill="white"/>
</g>
<defs>
<clipPath id="clip0_776_13963">
<rect width="166.62" height="24" fill="white"/>
</clipPath>
</defs>
</svg>
